<svg xmlns="http://www.w3.org/2000/svg" xmlns:xlink="http://www.w3.org/1999/xlink" width="159" zoomAndPan="magnify" viewBox="0 0 119.25 36.000001" height="48" preserveAspectRatio="xMidYMid meet" version="1.0"><defs><g/></defs><g fill="#000000" fill-opacity="1"><g transform="translate(3.765328, 21.527029)"><g><path d="M 0.796875 0 L 0.796875 -9.328125 L 5.078125 -9.328125 C 5.535156 -9.328125 5.957031 -9.234375 6.34375 -9.046875 C 6.726562 -8.867188 7.0625 -8.625 7.34375 -8.3125 C 7.625 -8 7.835938 -7.648438 7.984375 -7.265625 C 8.140625 -6.878906 8.21875 -6.488281 8.21875 -6.09375 C 8.21875 -5.738281 8.164062 -5.394531 8.0625 -5.0625 C 7.957031 -4.726562 7.804688 -4.421875 7.609375 -4.140625 C 7.410156 -3.867188 7.171875 -3.632812 6.890625 -3.4375 L 8.859375 0 L 6.046875 0 L 4.40625 -2.859375 L 3.359375 -2.859375 L 3.359375 0 Z M 3.359375 -5.09375 L 4.984375 -5.09375 C 5.085938 -5.09375 5.1875 -5.128906 5.28125 -5.203125 C 5.375 -5.285156 5.453125 -5.398438 5.515625 -5.546875 C 5.585938 -5.703125 5.625 -5.882812 5.625 -6.09375 C 5.625 -6.3125 5.585938 -6.492188 5.515625 -6.640625 C 5.441406 -6.785156 5.347656 -6.894531 5.234375 -6.96875 C 5.128906 -7.050781 5.023438 -7.09375 4.921875 -7.09375 L 3.359375 -7.09375 Z M 3.359375 -5.09375 "/></g></g></g><g fill="#000000" fill-opacity="1"><g transform="translate(12.631484, 21.527029)"><g><path d="M 7.453125 -2.234375 L 7.453125 0 L 0.796875 0 L 0.796875 -9.328125 L 7.328125 -9.328125 L 7.328125 -7.09375 L 3.359375 -7.09375 L 3.359375 -5.78125 L 6.75 -5.78125 L 6.75 -3.703125 L 3.359375 -3.703125 L 3.359375 -2.234375 Z M 7.453125 -2.234375 "/></g></g></g><g fill="#000000" fill-opacity="1"><g transform="translate(20.473105, 21.527029)"><g><path d="M 8.734375 -2.390625 C 8.734375 -1.828125 8.582031 -1.367188 8.28125 -1.015625 C 7.976562 -0.671875 7.570312 -0.414062 7.0625 -0.25 C 6.5625 -0.0820312 6.003906 0 5.390625 0 L 0.796875 0 L 0.796875 -9.328125 L 6.21875 -9.328125 C 6.65625 -9.328125 7.03125 -9.210938 7.34375 -8.984375 C 7.664062 -8.753906 7.910156 -8.453125 8.078125 -8.078125 C 8.253906 -7.710938 8.34375 -7.332031 8.34375 -6.9375 C 8.34375 -6.507812 8.226562 -6.09375 8 -5.6875 C 7.78125 -5.28125 7.445312 -4.976562 7 -4.78125 C 7.539062 -4.625 7.960938 -4.347656 8.265625 -3.953125 C 8.578125 -3.554688 8.734375 -3.035156 8.734375 -2.390625 Z M 6.140625 -2.921875 C 6.140625 -3.078125 6.109375 -3.210938 6.046875 -3.328125 C 5.992188 -3.453125 5.914062 -3.546875 5.8125 -3.609375 C 5.71875 -3.679688 5.609375 -3.71875 5.484375 -3.71875 L 3.359375 -3.71875 L 3.359375 -2.15625 L 5.390625 -2.15625 C 5.523438 -2.15625 5.648438 -2.1875 5.765625 -2.25 C 5.878906 -2.3125 5.96875 -2.398438 6.03125 -2.515625 C 6.101562 -2.628906 6.140625 -2.765625 6.140625 -2.921875 Z M 3.359375 -7.15625 L 3.359375 -5.71875 L 5.109375 -5.71875 C 5.222656 -5.71875 5.332031 -5.734375 5.4375 -5.765625 C 5.539062 -5.804688 5.628906 -5.878906 5.703125 -5.984375 C 5.773438 -6.097656 5.8125 -6.25 5.8125 -6.4375 C 5.8125 -6.613281 5.78125 -6.75 5.71875 -6.84375 C 5.664062 -6.945312 5.59375 -7.023438 5.5 -7.078125 C 5.40625 -7.128906 5.300781 -7.15625 5.1875 -7.15625 Z M 3.359375 -7.15625 "/></g></g></g><g fill="#000000" fill-opacity="1"><g transform="translate(29.536291, 21.527029)"><g><path d="M 7.453125 -2.234375 L 7.453125 0 L 0.796875 0 L 0.796875 -9.328125 L 7.328125 -9.328125 L 7.328125 -7.09375 L 3.359375 -7.09375 L 3.359375 -5.78125 L 6.75 -5.78125 L 6.75 -3.703125 L 3.359375 -3.703125 L 3.359375 -2.234375 Z M 7.453125 -2.234375 "/></g></g></g><g fill="#000000" fill-opacity="1"><g transform="translate(37.233428, 21.527029)"><g><path d="M 0.296875 -4.75 C 0.296875 -5.3125 0.398438 -5.863281 0.609375 -6.40625 C 0.828125 -6.957031 1.140625 -7.457031 1.546875 -7.90625 C 1.960938 -8.351562 2.460938 -8.707031 3.046875 -8.96875 C 3.640625 -9.238281 4.3125 -9.375 5.0625 -9.375 C 5.957031 -9.375 6.734375 -9.1875 7.390625 -8.8125 C 8.054688 -8.445312 8.554688 -7.957031 8.890625 -7.34375 L 6.921875 -5.953125 C 6.804688 -6.253906 6.640625 -6.488281 6.421875 -6.65625 C 6.210938 -6.820312 5.984375 -6.9375 5.734375 -7 C 5.484375 -7.070312 5.238281 -7.109375 5 -7.109375 C 4.632812 -7.109375 4.316406 -7.035156 4.046875 -6.890625 C 3.785156 -6.742188 3.566406 -6.550781 3.390625 -6.3125 C 3.222656 -6.082031 3.097656 -5.820312 3.015625 -5.53125 C 2.929688 -5.238281 2.890625 -4.953125 2.890625 -4.671875 C 2.890625 -4.335938 2.9375 -4.019531 3.03125 -3.71875 C 3.132812 -3.425781 3.273438 -3.164062 3.453125 -2.9375 C 3.640625 -2.707031 3.863281 -2.523438 4.125 -2.390625 C 4.394531 -2.253906 4.695312 -2.1875 5.03125 -2.1875 C 5.269531 -2.1875 5.507812 -2.222656 5.75 -2.296875 C 6 -2.378906 6.222656 -2.503906 6.421875 -2.671875 C 6.628906 -2.835938 6.785156 -3.0625 6.890625 -3.34375 L 8.96875 -2.09375 C 8.789062 -1.632812 8.484375 -1.242188 8.046875 -0.921875 C 7.617188 -0.597656 7.132812 -0.347656 6.59375 -0.171875 C 6.050781 -0.00390625 5.515625 0.078125 4.984375 0.078125 C 4.285156 0.078125 3.648438 -0.0546875 3.078125 -0.328125 C 2.503906 -0.609375 2.007812 -0.976562 1.59375 -1.4375 C 1.175781 -1.894531 0.851562 -2.410156 0.625 -2.984375 C 0.40625 -3.554688 0.296875 -4.144531 0.296875 -4.75 Z M 0.296875 -4.75 "/></g></g></g><g fill="#000000" fill-opacity="1"><g transform="translate(46.165268, 21.527029)"><g><path d="M 0.296875 -4.75 C 0.296875 -5.3125 0.398438 -5.863281 0.609375 -6.40625 C 0.828125 -6.957031 1.140625 -7.457031 1.546875 -7.90625 C 1.960938 -8.351562 2.460938 -8.707031 3.046875 -8.96875 C 3.640625 -9.238281 4.3125 -9.375 5.0625 -9.375 C 5.957031 -9.375 6.734375 -9.1875 7.390625 -8.8125 C 8.054688 -8.445312 8.554688 -7.957031 8.890625 -7.34375 L 6.921875 -5.953125 C 6.804688 -6.253906 6.640625 -6.488281 6.421875 -6.65625 C 6.210938 -6.820312 5.984375 -6.9375 5.734375 -7 C 5.484375 -7.070312 5.238281 -7.109375 5 -7.109375 C 4.632812 -7.109375 4.316406 -7.035156 4.046875 -6.890625 C 3.785156 -6.742188 3.566406 -6.550781 3.390625 -6.3125 C 3.222656 -6.082031 3.097656 -5.820312 3.015625 -5.53125 C 2.929688 -5.238281 2.890625 -4.953125 2.890625 -4.671875 C 2.890625 -4.335938 2.9375 -4.019531 3.03125 -3.71875 C 3.132812 -3.425781 3.273438 -3.164062 3.453125 -2.9375 C 3.640625 -2.707031 3.863281 -2.523438 4.125 -2.390625 C 4.394531 -2.253906 4.695312 -2.1875 5.03125 -2.1875 C 5.269531 -2.1875 5.507812 -2.222656 5.75 -2.296875 C 6 -2.378906 6.222656 -2.503906 6.421875 -2.671875 C 6.628906 -2.835938 6.785156 -3.0625 6.890625 -3.34375 L 8.96875 -2.09375 C 8.789062 -1.632812 8.484375 -1.242188 8.046875 -0.921875 C 7.617188 -0.597656 7.132812 -0.347656 6.59375 -0.171875 C 6.050781 -0.00390625 5.515625 0.078125 4.984375 0.078125 C 4.285156 0.078125 3.648438 -0.0546875 3.078125 -0.328125 C 2.503906 -0.609375 2.007812 -0.976562 1.59375 -1.4375 C 1.175781 -1.894531 0.851562 -2.410156 0.625 -2.984375 C 0.40625 -3.554688 0.296875 -4.144531 0.296875 -4.75 Z M 0.296875 -4.75 "/></g></g></g><g fill="#000000" fill-opacity="1"><g transform="translate(55.097108, 21.527029)"><g><path d="M 2.953125 -9.328125 L 5.828125 -9.328125 L 8.796875 0 L 6.1875 0 L 5.625 -1.828125 L 3.140625 -1.828125 L 2.59375 0 L -0.03125 0 Z M 5.21875 -3.53125 L 4.390625 -6.8125 L 3.515625 -3.53125 Z M 5.21875 -3.53125 "/></g></g></g><g fill="#000000" fill-opacity="1"><g transform="translate(63.865411, 21.527029)"><g><path d="M 2.09375 -7.640625 L 2.09375 0 L 1.171875 0 L 1.171875 -9.328125 L 1.9375 -9.328125 L 8.0625 -1.546875 L 8.0625 -9.3125 L 8.96875 -9.3125 L 8.96875 0 L 8.125 0 Z M 2.09375 -7.640625 "/></g></g></g><g fill="#000000" fill-opacity="1"><g transform="translate(74.005677, 21.527029)"><g><path d="M 4.671875 -9.265625 L 5.546875 -9.265625 L 6.859375 -5.953125 L 8.1875 -9.265625 L 9.0625 -9.265625 L 7.4375 -5.28125 L 9.21875 -1.0625 L 12.609375 -9.328125 L 13.59375 -9.328125 L 9.640625 0 L 8.828125 0 L 6.875 -4.609375 L 4.90625 0 L 4.09375 0 L 0.15625 -9.328125 L 1.140625 -9.328125 L 4.53125 -1.0625 L 6.3125 -5.28125 Z M 4.671875 -9.265625 "/></g></g></g><g fill="#000000" fill-opacity="1"><g transform="translate(87.403426, 21.527029)"><g><path d="M 4.921875 0.0625 C 4.265625 0.0625 3.671875 -0.0664062 3.140625 -0.328125 C 2.609375 -0.585938 2.148438 -0.941406 1.765625 -1.390625 C 1.378906 -1.847656 1.078125 -2.359375 0.859375 -2.921875 C 0.648438 -3.484375 0.546875 -4.066406 0.546875 -4.671875 C 0.546875 -5.285156 0.65625 -5.875 0.875 -6.4375 C 1.09375 -7.007812 1.398438 -7.515625 1.796875 -7.953125 C 2.203125 -8.398438 2.671875 -8.75 3.203125 -9 C 3.742188 -9.257812 4.320312 -9.390625 4.9375 -9.390625 C 5.59375 -9.390625 6.1875 -9.253906 6.71875 -8.984375 C 7.257812 -8.710938 7.71875 -8.347656 8.09375 -7.890625 C 8.476562 -7.441406 8.773438 -6.9375 8.984375 -6.375 C 9.191406 -5.8125 9.296875 -5.238281 9.296875 -4.65625 C 9.296875 -4.03125 9.1875 -3.4375 8.96875 -2.875 C 8.75 -2.3125 8.441406 -1.804688 8.046875 -1.359375 C 7.660156 -0.921875 7.195312 -0.570312 6.65625 -0.3125 C 6.125 -0.0625 5.546875 0.0625 4.921875 0.0625 Z M 1.46875 -4.671875 C 1.46875 -4.160156 1.550781 -3.671875 1.71875 -3.203125 C 1.882812 -2.734375 2.117188 -2.316406 2.421875 -1.953125 C 2.734375 -1.585938 3.101562 -1.296875 3.53125 -1.078125 C 3.957031 -0.867188 4.421875 -0.765625 4.921875 -0.765625 C 5.460938 -0.765625 5.941406 -0.875 6.359375 -1.09375 C 6.785156 -1.320312 7.148438 -1.617188 7.453125 -1.984375 C 7.753906 -2.359375 7.984375 -2.773438 8.140625 -3.234375 C 8.304688 -3.703125 8.390625 -4.179688 8.390625 -4.671875 C 8.390625 -5.171875 8.304688 -5.648438 8.140625 -6.109375 C 7.972656 -6.578125 7.734375 -6.992188 7.421875 -7.359375 C 7.109375 -7.734375 6.738281 -8.023438 6.3125 -8.234375 C 5.894531 -8.441406 5.429688 -8.546875 4.921875 -8.546875 C 4.398438 -8.546875 3.925781 -8.4375 3.5 -8.21875 C 3.070312 -8 2.707031 -7.703125 2.40625 -7.328125 C 2.101562 -6.960938 1.867188 -6.546875 1.703125 -6.078125 C 1.546875 -5.617188 1.46875 -5.148438 1.46875 -4.671875 Z M 1.46875 -4.671875 "/></g></g></g><g fill="#000000" fill-opacity="1"><g transform="translate(96.913207, 21.527029)"><g><path d="M 1.125 -9.328125 L 4.46875 -1.140625 L 7.796875 -9.328125 L 8.75 -9.328125 L 4.890625 0 L 4.046875 0 L 0.171875 -9.328125 Z M 1.125 -9.328125 "/></g></g></g><g fill="#000000" fill-opacity="1"><g transform="translate(105.831908, 21.527029)"><g><path d="M 4.96875 0.0625 C 4.226562 0.0625 3.601562 -0.0664062 3.09375 -0.328125 C 2.59375 -0.585938 2.191406 -0.9375 1.890625 -1.375 C 1.597656 -1.820312 1.378906 -2.328125 1.234375 -2.890625 C 1.097656 -3.453125 1.03125 -4.03125 1.03125 -4.625 L 1.03125 -9.328125 L 1.9375 -9.328125 L 1.9375 -4.625 C 1.9375 -4.144531 1.988281 -3.671875 2.09375 -3.203125 C 2.195312 -2.742188 2.363281 -2.328125 2.59375 -1.953125 C 2.820312 -1.585938 3.128906 -1.296875 3.515625 -1.078125 C 3.898438 -0.867188 4.378906 -0.765625 4.953125 -0.765625 C 5.546875 -0.765625 6.035156 -0.875 6.421875 -1.09375 C 6.816406 -1.320312 7.125 -1.617188 7.34375 -1.984375 C 7.570312 -2.347656 7.734375 -2.757812 7.828125 -3.21875 C 7.921875 -3.6875 7.96875 -4.15625 7.96875 -4.625 L 7.96875 -9.328125 L 8.890625 -9.328125 L 8.890625 -4.625 C 8.890625 -4 8.816406 -3.398438 8.671875 -2.828125 C 8.535156 -2.265625 8.3125 -1.769531 8 -1.34375 C 7.695312 -0.914062 7.296875 -0.570312 6.796875 -0.3125 C 6.296875 -0.0625 5.6875 0.0625 4.96875 0.0625 Z M 4.96875 0.0625 "/></g></g></g></svg>